<svg width="64" height="64" version="1.1" viewBox="0 0 16.933 16.933" xmlns="http://www.w3.org/2000/svg">
 <g transform="matrix(1.25 0 0 1.25 -2.1189 -2.1165)">
  <g transform="translate(3.0312e-6 -.37571)" stroke-width=".8" style="shape-inside:url(#rect921);white-space:pre" aria-label="♝">
   <path d="m6.3093 10.001c0-0.021167-0.084667-0.13229-0.254-0.33338-0.15875-0.20108-0.3175-0.46567-0.47625-0.79375s-0.23812-0.65088-0.23812-0.96838c0-0.6985 0.25929-1.2965 0.77788-1.7939s1.0478-0.80962 1.5875-0.93662c-0.23283-0.28575-0.34925-0.58208-0.34925-0.889s0.10054-0.54504 0.30162-0.71438c0.21167-0.16933 0.48154-0.254 0.80962-0.254 0.3175 0 0.58208 0.089958 0.79375 0.26988 0.21167 0.16933 0.3175 0.40217 0.3175 0.6985s-0.11642 0.59267-0.34925 0.889c0.59267 0.14817 1.1324 0.46038 1.6192 0.93662 0.49742 0.46567 0.74612 1.0636 0.74612 1.7939 0 0.61383-0.3175 1.2859-0.9525 2.0161 0 0.0635 0.04763 0.25929 0.14288 0.58738 0.10583 0.3175 0.16404 0.52917 0.17462 0.635 0 0.37042-0.37571 0.58738-1.1271 0.65088 0.55033 0.21167 1.0636 0.3175 1.5399 0.3175l0.93662-0.04763c0.3175 0 0.56621 0.08467 0.74612 0.254 0.1905 0.16933 0.37571 0.42333 0.55562 0.762-0.03175 0.04233-0.127 0.1905-0.28575 0.4445-0.14817 0.254-0.28575 0.4445-0.41275 0.5715-0.11642 0.127-0.254 0.21696-0.41275 0.26988-0.03175-0.16933-0.20638-0.29104-0.52388-0.36512-0.3175-0.0635-0.68262-0.10054-1.0954-0.11112-0.40217-0.01058-0.84138-0.07937-1.3176-0.20638-0.46567-0.13758-0.83079-0.33867-1.0954-0.60325-0.32808 0.33867-0.8255 0.56621-1.4922 0.68262-0.65617 0.10583-1.233 0.17992-1.7304 0.22225-0.49742 0.05292-0.76729 0.17992-0.80962 0.381-0.15875-0.0635-0.29633-0.16404-0.41275-0.30162-0.11642-0.127-0.24871-0.30162-0.39688-0.52388-0.13758-0.22225-0.23812-0.37571-0.30162-0.46038 0.16933-0.32808 0.34925-0.57679 0.53975-0.74612 0.1905-0.17992 0.4445-0.26988 0.762-0.26988 0.56092 0.03175 0.87312 0.04763 0.93662 0.04763 0.48683 0 1.0001-0.10583 1.5399-0.3175-0.75142-0.0635-1.1271-0.28046-1.1271-0.65088 0-0.07408 0.052917-0.25929 0.15875-0.55562 0.11642-0.30692 0.17462-0.50271 0.17462-0.58738z" stroke-width=".8"/>
  </g>
  <g transform="translate(3.0312e-6 -.37571)" fill="#fff" stroke-width=".64" style="shape-inside:url(#rect921);white-space:pre" aria-label="♝">
   <path d="m7.6904 10.224c-0.53975 0-0.80962 0.08467-0.80962 0.254 0 0.17992 0.52917 0.26988 1.5875 0.26988 1.0583 0 1.5875-0.08996 1.5875-0.26988 0-0.16933-0.26987-0.254-0.80962-0.254zm0.77788-0.47625c0.66675 0 1.0954-0.015875 1.2859-0.047625 0.20108-0.03175 0.30162-0.10054 0.30162-0.20638 0-0.16933-0.26987-0.254-0.80962-0.254h-1.7462c-0.41275 0-0.61912 0.084667-0.61912 0.254 0 0.10583 0.10583 0.17462 0.3175 0.20638s0.635 0.047625 1.27 0.047625zm0.28575-1.3018v-0.73025h0.55562v-0.60325h-0.55562v-0.68262h-0.5715v0.68262h-0.55562v0.60325h0.55562v0.73025zm-0.28575-4.4768c-0.11642 0-0.21696 0.037042-0.30162 0.11112-0.074083 0.074083-0.11112 0.16404-0.11112 0.26988s0.037042 0.20108 0.11112 0.28575c0.084667 0.074083 0.18521 0.11112 0.30162 0.11112 0.26458 0 0.39688-0.13229 0.39688-0.39688 0-0.254-0.13229-0.381-0.39688-0.381z" fill="#fff" stroke-width=".512"/>
  </g>
 </g>
</svg>
