<svg width="64" height="64" version="1.1" viewBox="0 0 16.933 16.933" xmlns="http://www.w3.org/2000/svg">
 <g transform="matrix(1.25 0 0 1.25 -2.109 -2.1169)">
  <g transform="translate(0 -.21696)" stroke-width=".8" style="shape-inside:url(#rect915);white-space:pre" aria-label="♚">
   <path d="m7.1824 7.1279c0-0.45508 0.047625-0.78846 0.14288-1.0001s0.34396-0.45508 0.74612-0.73025v-0.36512l-0.65088-0.39688v-0.5715h0.58738l0.1905-0.58738h0.53975l0.20638 0.58738h0.5715v0.5715l-0.635 0.39688v0.36512c0.37042 0.24342 0.60854 0.47625 0.71438 0.6985 0.10583 0.21167 0.15875 0.55562 0.15875 1.0319 0.49742-0.40217 1.0107-0.60325 1.5399-0.60325 0.55033 0 1.016 0.17992 1.397 0.53975 0.39158 0.35983 0.58738 0.80962 0.58738 1.3494 0 0.43392-0.20638 0.93662-0.61912 1.5081-0.254 0.34925-0.42862 0.60325-0.52388 0.762-0.08467 0.14817-0.17992 0.41275-0.28575 0.79375-0.09525 0.37042-0.14817 0.81492-0.15875 1.3335-0.02117 0.71967-1.1007 1.0795-3.2385 1.0795-2.1167 0-3.1909-0.35983-3.2226-1.0795-0.010583-0.53975-0.079375-1.016-0.20638-1.4288-0.11642-0.42333-0.22225-0.70908-0.3175-0.85725s-0.24342-0.35454-0.4445-0.61913c-0.41275-0.56092-0.61912-1.0583-0.61912-1.4922 0-0.52917 0.1905-0.97367 0.5715-1.3335 0.39158-0.37042 0.85725-0.55562 1.397-0.55562 0.55033 0 1.0742 0.20108 1.5716 0.60325z" stroke-width=".8"/>
  </g>
  <g transform="translate(0 -.21696)" fill="#fff" stroke-width=".64" style="shape-inside:url(#rect915);white-space:pre" aria-label="♚">
   <path d="m11.246 7.0802c-0.14817 0-0.34396 0.052917-0.58738 0.15875-0.23283 0.09525-0.49212 0.24871-0.77787 0.46038-0.27517 0.20108-0.51329 0.49742-0.71438 0.889s-0.30162 0.83608-0.30162 1.3335c0 0.1905-0.13758 0.28575-0.41275 0.28575-0.28575 0-0.42862-0.09525-0.42862-0.28575 0-0.51858-0.10054-0.97896-0.30162-1.3811-0.1905-0.40217-0.42862-0.6985-0.71438-0.889-0.28575-0.20108-0.54504-0.34396-0.77788-0.42862-0.23283-0.09525-0.42862-0.14288-0.58738-0.14288-0.43392 0-0.77788 0.11642-1.0319 0.34925s-0.381 0.55562-0.381 0.96838c0 0.14817 0.079375 0.40217 0.23812 0.762s0.41804 0.72496 0.77788 1.0954c0.35983 0.37042 0.75671 0.55562 1.1906 0.55562 0.41275 0 1.0795-0.07937 2.0002-0.23812 0.94192 0.15875 1.614 0.23812 2.0161 0.23812 0.32808 0 0.64029-0.10583 0.93662-0.3175 0.30692-0.22225 0.54504-0.47625 0.71438-0.762 0.16933-0.29633 0.30162-0.56621 0.39688-0.80962 0.10583-0.254 0.15875-0.42862 0.15875-0.52388 0-0.41275-0.127-0.73554-0.381-0.96838s-0.59796-0.34925-1.0319-0.34925zm-2.0002 2.9051c0.010583-0.381 0.068792-0.72496 0.17462-1.0319 0.11642-0.30692 0.24871-0.55033 0.39688-0.73025 0.15875-0.17992 0.33337-0.32808 0.52387-0.4445s0.35454-0.19579 0.49212-0.23812c0.14817-0.042333 0.27517-0.0635 0.381-0.0635 0.3175 0 0.57679 0.084667 0.77788 0.254 0.21167 0.15875 0.3175 0.381 0.3175 0.66675 0 0.084667-0.04233 0.22754-0.127 0.42862-0.07408 0.20108-0.1905 0.42333-0.34925 0.66675-0.14817 0.23283-0.36512 0.43921-0.65088 0.61913-0.28575 0.17992-0.60325 0.26988-0.9525 0.26988-0.65617 0-0.98425-0.13229-0.98425-0.39688zm1.5557 2.4448c0-0.27517-0.77788-0.41275-2.3336-0.41275-0.6985 0-1.27 0.03704-1.7145 0.11112-0.43392 0.07408-0.65088 0.16933-0.65088 0.28575 0 0.15875 0.14288 0.23812 0.42862 0.23812 0.03175 0 0.34396-0.02646 0.93662-0.07937 0.59267-0.05292 0.92075-0.07938 0.98425-0.07938 0.03175 0 0.33867 0.02646 0.92075 0.07938 0.59267 0.05291 0.92075 0.07937 0.98425 0.07937 0.29633 0 0.4445-0.07408 0.4445-0.22225zm-5.1435-4.953c0.13758 0 0.30162 0.042333 0.49212 0.127 0.20108 0.074083 0.41804 0.20108 0.65088 0.381 0.24342 0.16933 0.4445 0.43392 0.60325 0.79375 0.15875 0.34925 0.23812 0.75671 0.23812 1.2224 0 0.254-0.32279 0.381-0.96838 0.381-0.35983 0-0.68792-0.08996-0.98425-0.26988-0.28575-0.17992-0.50271-0.39158-0.65088-0.635-0.14817-0.254-0.25929-0.47625-0.33338-0.66675-0.074083-0.1905-0.11112-0.32808-0.11112-0.41275 0-0.28575 0.10054-0.508 0.30162-0.66675 0.21167-0.16933 0.46567-0.254 0.762-0.254z" fill="#fff" stroke-width=".512"/>
  </g>
 </g>
</svg>
