<svg width="64" height="64" version="1.1" viewBox="0 0 16.933 16.933" xmlns="http://www.w3.org/2000/svg">
 <g transform="matrix(1.25 0 0 1.25 -1.9107 -2.1172)">
  <g transform="translate(4.0312e-6 -.21696)" stroke-width=".8" style="shape-inside:url(#rect923);white-space:pre" aria-label="♞">
   <path d="m3.5312 10.843c0.0635-0.39158 0.41275-1.2594 1.0478-2.6035 0.635-1.3441 0.9525-2.2172 0.9525-2.6194 0-0.3175-0.026458-0.60325-0.079375-0.85725 0.83608 0 1.4288 0.17462 1.778 0.52388 0.30692-0.49742 0.53975-0.74612 0.6985-0.74612 0.28575 0.15875 0.47096 0.30692 0.55562 0.4445 0.09525 0.13758 0.21167 0.41804 0.34925 0.84138 0.084667-0.021167 0.16933-0.03175 0.254-0.03175 0.22225 0 0.48154 0.058208 0.77788 0.17462 0.30692 0.11642 0.65087 0.33867 1.0319 0.66675 0.381 0.3175 0.73025 0.71967 1.0478 1.2065 0.3175 0.47625 0.58208 1.1271 0.79375 1.9526 0.22225 0.8255 0.33338 1.7515 0.33338 2.7781 0 0.48683-0.02117 0.92604-0.0635 1.3176h-6.6992c0.010583-0.46567 0.10583-0.88371 0.28575-1.2541 0.17992-0.381 0.37042-0.67733 0.5715-0.889 0.21167-0.21167 0.41275-0.47096 0.60325-0.77788s0.30692-0.62442 0.34925-0.9525c-0.40217 0.15875-0.75142 0.37042-1.0478 0.635s-0.50271 0.508-0.61912 0.73025c-0.11642 0.21167-0.23283 0.40217-0.34925 0.5715-0.10583 0.15875-0.21167 0.23812-0.3175 0.23812-0.26458 0-0.39688-0.16404-0.39688-0.49212-0.10583 0.13758-0.22754 0.20638-0.36512 0.20638l-0.3175-0.07938c-0.32808-0.08467-0.5715-0.1905-0.73025-0.3175-0.14817-0.13758-0.29633-0.35983-0.4445-0.66675z" stroke-width=".8"/>
  </g>
  <g transform="translate(4.0312e-6 -.21696)" fill="#fff" stroke-width=".64" style="shape-inside:url(#rect923);white-space:pre" aria-label="♞">
   <path d="m5.7219 8.2391c0.1905 0 0.41804-0.10054 0.68262-0.30162 0.26458-0.21167 0.39688-0.40217 0.39688-0.5715 0-0.13758-0.127-0.20638-0.381-0.20638-0.21167 0-0.41804 0.084667-0.61912 0.254-0.1905 0.16933-0.28575 0.34925-0.28575 0.53975s0.068792 0.28575 0.20638 0.28575zm-1.2224 2.0955c-0.14817 0-0.27517 0.04763-0.381 0.14288s-0.15875 0.21167-0.15875 0.34925c0 0.04233 0.015875 0.09525 0.047625 0.15875 0.14817 0 0.26988-0.04233 0.36512-0.127 0.10583-0.08467 0.15875-0.19579 0.15875-0.33338 0-0.02117-0.010583-0.08467-0.03175-0.1905zm7.7946 2.4448c0-0.78317-0.09525-1.5293-0.28575-2.2384-0.17992-0.70908-0.41275-1.3018-0.6985-1.778-0.27517-0.47625-0.57679-0.889-0.90488-1.2382-0.32808-0.35983-0.635-0.61912-0.92075-0.77788-0.28575-0.16933-0.52917-0.254-0.73025-0.254-0.20108 0.021167-0.30162 0.089958-0.30162 0.20638 0 0.0635 0.015875 0.10583 0.047625 0.127 1.0477 0.52917 1.8415 1.3441 2.3812 2.4448 0.55033 1.0901 0.8255 2.2543 0.8255 3.4925 0 0.28575 0.10054 0.42862 0.30162 0.42862 0.1905 0 0.28575-0.13758 0.28575-0.41275z" fill="#fff" stroke-width=".512"/>
  </g>
 </g>
</svg>
