<svg width="64" height="64" version="1.1" viewBox="0 0 16.933 16.933" xmlns="http://www.w3.org/2000/svg">
 <path d="m9.8259 5.9663q1.3693 0.57549 1.3693 1.8852 0 0.61516-0.3175 1.1311-0.31751 0.49611-0.79377 0.65486 1.3693 0.69455 2.0043 1.6868 0.63501 0.99223 0.63501 2.7187 0 0.69454-0.0198 0.93267h-8.4734q-0.01985-0.23813-0.01985-0.93267 0-1.7065 0.63501-2.7187 0.65482-1.012 2.024-1.6868-0.49611-0.15875-0.81362-0.65486-0.31751-0.49611-0.31751-1.1311 0-1.3295 1.3693-1.8852-0.3572-0.59532-0.3572-1.1311 0-0.65486 0.51595-1.0914 0.51595-0.43656 1.2105-0.43657 0.69455-1.3e-5 1.1906 0.43657 0.49609 0.43658 0.49611 1.0914 0 0.57549-0.33736 1.1311z" style="white-space:pre"/>
</svg>
