<svg width="64" height="64" version="1.1" viewBox="0 0 16.933 16.933" xmlns="http://www.w3.org/2000/svg">
 <g transform="matrix(1.25 0 0 1.25 -2.1195 -2.1165)">
  <g transform="translate(1.0312e-6 -.23283)" stroke-width=".8" style="shape-inside:url(#rect917);white-space:pre" aria-label="♛">
   <path d="m11.485 11.652c0 0.0635 0.07408 0.26988 0.22225 0.61912 0.14817 0.33867 0.22225 0.64558 0.22225 0.92075 0 0.254-0.36512 0.43921-1.0954 0.55562-0.71967 0.10583-1.5081 0.15875-2.3654 0.15875-0.97367 0-1.7939-0.0635-2.4606-0.1905-0.65617-0.13758-0.98425-0.31221-0.98425-0.52388 0-0.28575 0.068792-0.59796 0.20638-0.93662 0.14817-0.33867 0.22225-0.53975 0.22225-0.60325 0-0.17992-0.20108-0.49742-0.60325-0.9525-0.39158-0.46567-0.58738-0.75142-0.58738-0.85725 0-0.0635-0.042333-0.22754-0.127-0.49212-0.074083-0.26458-0.15875-0.61383-0.254-1.0478s-0.15875-0.87842-0.1905-1.3335c-0.48683-0.20108-0.73025-0.52388-0.73025-0.96838 0-0.254 0.084667-0.46567 0.254-0.635 0.17992-0.16933 0.39688-0.254 0.65088-0.254 0.24342 0 0.44979 0.089958 0.61912 0.26988 0.17992 0.16933 0.26988 0.37571 0.26988 0.61912 0 0.010583-0.015875 0.11112-0.047625 0.30162-0.021167 0.17992-0.03175 0.28046-0.03175 0.30162 0 0.47625 0.33867 1.0583 1.016 1.7462 0.052917-0.43392 0.079375-0.889 0.079375-1.3652 0-0.39158-0.037042-0.6985-0.11112-0.92075s-0.15875-0.35983-0.254-0.41275c-0.09525-0.052917-0.17992-0.13229-0.254-0.23812-0.074083-0.10583-0.11112-0.254-0.11112-0.4445 0-0.254 0.084667-0.46567 0.254-0.635 0.17992-0.16933 0.39688-0.254 0.65088-0.254 0.24342 0 0.44979 0.089958 0.61912 0.26988 0.17992 0.16933 0.26988 0.37571 0.26988 0.61912 0 0.021167-0.021167 0.13229-0.0635 0.33338-0.03175 0.20108-0.047625 0.3175-0.047625 0.34925 0 0.59267 0.29104 1.4975 0.87312 2.7146 0.22225-0.99483 0.33338-1.7568 0.33338-2.286 0-0.381-0.058208-0.72496-0.17462-1.0319-0.10583-0.3175-0.15875-0.48683-0.15875-0.508 0-0.254 0.084667-0.46567 0.254-0.635 0.17992-0.16933 0.39158-0.254 0.635-0.254s0.4445 0.089958 0.60325 0.26988c0.16933 0.16933 0.254 0.37571 0.254 0.61912 0 0.052917-0.058208 0.22754-0.17462 0.52388-0.10583 0.29633-0.15875 0.635-0.15875 1.016 0 0.52917 0.11112 1.2912 0.33338 2.286 0.5715-1.2065 0.85725-2.1114 0.85725-2.7146 0-0.042333-0.01588-0.15346-0.04763-0.33338s-0.04763-0.29633-0.04763-0.34925c0-0.254 0.08467-0.46567 0.254-0.635 0.17992-0.16933 0.39688-0.254 0.65088-0.254 0.24342 0 0.44979 0.089958 0.61912 0.26988 0.17992 0.16933 0.26988 0.37571 0.26988 0.61912 0 0.15875-0.02646 0.28575-0.07938 0.381-0.04233 0.084667-0.10054 0.15875-0.17462 0.22225s-0.14817 0.14288-0.22225 0.23812c-0.07408 0.084667-0.13758 0.22754-0.1905 0.42862-0.04233 0.20108-0.0635 0.45508-0.0635 0.762 0 0.46567 0.02646 0.91546 0.07937 1.3494 0.67733-0.68792 1.016-1.27 1.016-1.7462 0-0.24342-0.02646-0.4445-0.07937-0.60325 0-0.24342 0.08467-0.44979 0.254-0.61912 0.17992-0.17992 0.39158-0.26988 0.635-0.26988 0.254 0 0.46567 0.089958 0.635 0.26988 0.17992 0.16933 0.26988 0.37571 0.26988 0.61912 0 0.42333-0.24342 0.74612-0.73025 0.96838-0.0635 0.66675-0.17462 1.2859-0.33338 1.8574-0.15875 0.56092-0.23812 0.89958-0.23812 1.016 0 0.09525-0.20108 0.37571-0.60325 0.84138-0.39158 0.46567-0.58738 0.78846-0.58738 0.96838z" stroke-width=".8"/>
  </g>
  <g transform="translate(1.0312e-6 -.23283)" fill="#fff" stroke-width=".64" style="shape-inside:url(#rect917);white-space:pre" aria-label="♛">
   <path d="m8.4842 11.732c-0.66675 0-1.2753 0.04763-1.8256 0.14288-0.53975 0.09525-0.80962 0.21696-0.80962 0.36512 0 0.16933 0.12171 0.254 0.36512 0.254 0.042333 0 0.36512-0.02117 0.96838-0.0635 0.61383-0.04233 1.053-0.0635 1.3176-0.0635 0.27517 0 0.70908 0.02117 1.3018 0.0635 0.59267 0.04233 0.90487 0.0635 0.93662 0.0635 0.24342 0 0.36512-0.08467 0.36512-0.254 0-0.33867-0.87312-0.508-2.6194-0.508zm-4.6196-6.1278c-0.11642 0-0.21167 0.037042-0.28575 0.11112-0.074083 0.074083-0.11112 0.16933-0.11112 0.28575s0.037042 0.21167 0.11112 0.28575c0.074083 0.074083 0.16933 0.11112 0.28575 0.11112 0.254 0 0.381-0.13229 0.381-0.39688s-0.127-0.39688-0.381-0.39688zm2.0796-1.0001c-0.27517 0-0.41275 0.13229-0.41275 0.39688s0.13758 0.39688 0.41275 0.39688c0.254 0 0.381-0.13229 0.381-0.39688s-0.127-0.39688-0.381-0.39688zm5.0641 0c-0.10583 0-0.19579 0.042333-0.26988 0.127-0.07408 0.074083-0.11112 0.16404-0.11112 0.26988 0 0.26458 0.127 0.39688 0.381 0.39688 0.26458 0 0.39688-0.13229 0.39688-0.39688s-0.13229-0.39688-0.39688-0.39688zm2.0638 1.0001c-0.254 0-0.381 0.13229-0.381 0.39688s0.127 0.39688 0.381 0.39688c0.26458 0 0.39688-0.13229 0.39688-0.39688 0-0.11642-0.03704-0.21167-0.11112-0.28575-0.07408-0.074083-0.16933-0.11112-0.28575-0.11112zm-4.318-1.3652c-0.074083-0.084667-0.16404-0.127-0.26988-0.127s-0.20108 0.037042-0.28575 0.11112c-0.074083 0.074083-0.11112 0.16933-0.11112 0.28575s0.037042 0.21167 0.11112 0.28575c0.084667 0.074083 0.17992 0.11112 0.28575 0.11112 0.254 0 0.381-0.13229 0.381-0.39688 0-0.10583-0.037042-0.19579-0.11112-0.26988z" fill="#fff" stroke-width=".512"/>
  </g>
 </g>
</svg>
