<svg width="64" height="64" version="1.1" viewBox="0 0 16.933 16.933" xmlns="http://www.w3.org/2000/svg">
 <g transform="matrix(1.25 0 0 1.25 -2.1188 -2.1169)">
  <g transform="translate(3.0312e-6 -.2884)" stroke-width=".8" style="shape-inside:url(#rect861);white-space:pre" aria-label="♗">
   <path d="m10.643 9.7949c0 0.11642 0.05292 0.33338 0.15875 0.65088s0.15875 0.51329 0.15875 0.58738c0 0.35983-0.37571 0.58738-1.1271 0.68262 0.5715 0.20108 1.0795 0.30162 1.524 0.30162 0.03175 0 0.18521-0.0053 0.46038-0.01587 0.27517-0.02117 0.43392-0.03175 0.47625-0.03175 0.51858 0 0.9525 0.33338 1.3018 1.0001-0.03175 0.04233-0.10584 0.15875-0.22225 0.34925-0.11642 0.1905-0.20638 0.32808-0.26988 0.41275-0.05292 0.07408-0.13759 0.16404-0.254 0.26988-0.11642 0.11642-0.23283 0.20108-0.34925 0.254-0.04233-0.1905-0.3175-0.31221-0.8255-0.36512-0.49742-0.0635-1.0795-0.15346-1.7462-0.26988-0.65617-0.11642-1.143-0.33338-1.4605-0.65088-0.26458 0.26458-0.635 0.46567-1.1112 0.60325-0.46567 0.13758-0.89958 0.21696-1.3018 0.23812-0.40217 0.01059-0.76729 0.04763-1.0954 0.11112-0.3175 0.07408-0.49212 0.18521-0.52388 0.33338-0.11642-0.03175-0.23812-0.12171-0.36512-0.26988-0.127-0.13758-0.27517-0.33338-0.4445-0.58738l-0.28575-0.42862c0.34925-0.66675 0.78317-1.0001 1.3018-1.0001 0.010583 0 0.15875 0.01058 0.4445 0.03175 0.29633 0.01058 0.46038 0.01587 0.49212 0.01587 0.43392 0 0.94192-0.10054 1.524-0.30162-0.75142-0.09525-1.1271-0.32279-1.1271-0.68262 0-0.0635 0.052917-0.25929 0.15875-0.58738 0.10583-0.33867 0.15875-0.55033 0.15875-0.635 0-0.03175-0.079375-0.13229-0.23812-0.30162s-0.3175-0.40217-0.47625-0.6985-0.23812-0.62442-0.23812-0.98425c0-0.66675 0.30162-1.2753 0.90488-1.8256 0.61383-0.56092 1.1007-0.85725 1.4605-0.889-0.23283-0.28575-0.34925-0.58208-0.34925-0.889s0.10054-0.54504 0.30162-0.71438c0.21167-0.16933 0.48154-0.254 0.80962-0.254 0.3175 0 0.57679 0.089958 0.77788 0.26988 0.21167 0.16933 0.3175 0.40217 0.3175 0.6985 0 0.32808-0.11112 0.62442-0.33338 0.889 0.33867 0.042333 0.81492 0.33867 1.4287 0.889 0.62442 0.55033 0.93662 1.1589 0.93662 1.8256 0 0.59267-0.3175 1.2488-0.9525 1.9685z" stroke-width=".8"/>
  </g>
  <g transform="translate(3.0312e-6 -.2884)" fill="#fff" stroke-width=".64" style="shape-inside:url(#rect861);white-space:pre" aria-label="♗">
   <path d="m8.4683 9.5885c-0.74083 0-1.3176-0.03175-1.7304-0.09525 0.074083 0.14817 0.11112 0.27517 0.11112 0.381 0 0.15875-0.03175 0.29104-0.09525 0.39688 0.30692-0.09525 0.87842-0.14288 1.7145-0.14288s1.4076 0.04763 1.7145 0.14288c-0.0635-0.10583-0.09525-0.23812-0.09525-0.39688 0-0.127 0.03175-0.254 0.09525-0.381-0.49742 0.0635-1.0689 0.09525-1.7145 0.09525zm0.33338-5.6039c-0.09525-0.09525-0.20638-0.14288-0.33338-0.14288s-0.24342 0.047625-0.34925 0.14288c-0.09525 0.09525-0.14288 0.20108-0.14288 0.3175 0 0.13758 0.047625 0.254 0.14288 0.34925 0.09525 0.084667 0.21167 0.127 0.34925 0.127s0.254-0.042333 0.34925-0.127c0.09525-0.09525 0.14288-0.21167 0.14288-0.34925 0-0.127-0.052917-0.23283-0.15875-0.3175zm-0.33338 6.604c-0.51858 0-0.92075 0.02117-1.2065 0.0635-0.27517 0.03175-0.45508 0.07409-0.53975 0.127-0.084667 0.05291-0.127 0.127-0.127 0.22225s0.09525 0.15875 0.28575 0.1905c0.1905 0.02117 0.49742 0.03175 0.92075 0.03175h0.66675c1.2382 0 1.8574-0.07408 1.8574-0.22225 0-0.16933-0.12171-0.28046-0.36512-0.33338-0.24342-0.05291-0.74083-0.07937-1.4922-0.07937zm-0.03175-5.1911c-0.46567 0.052917-0.99483 0.32808-1.5875 0.8255-0.58208 0.49742-0.89429 0.98954-0.93662 1.4764 0.0635 0.43392 0.13229 0.73025 0.20638 0.889 0.084667 0.15875 0.30162 0.29104 0.65088 0.39688 0.34925 0.09525 0.91017 0.14288 1.6828 0.14288 0.47625 0 0.86783-0.015875 1.1748-0.047625 0.30692-0.042333 0.54504-0.089958 0.71437-0.14288 0.17992-0.052917 0.31221-0.14817 0.39688-0.28575 0.09525-0.14817 0.15875-0.27517 0.1905-0.381 0.03175-0.11642 0.0635-0.30692 0.09525-0.5715-0.04233-0.48683-0.36512-0.97896-0.96838-1.4764-0.59267-0.49742-1.1324-0.77258-1.6192-0.8255zm-0.254 2.9528v-0.6985h-0.53975v-0.61912h0.53975v-0.68262h0.5715v0.68262h0.53975v0.61912h-0.53975v0.6985zm0.28575 3.81c0.1905 0.35983 0.58208 0.62442 1.1748 0.79375 0.59267 0.16933 1.2171 0.26458 1.8732 0.28575 0.03175 0 0.17992 0.02117 0.4445 0.0635s0.40217 0.0635 0.41275 0.0635c0.22225 0 0.33338-0.10583 0.33338-0.3175 0-0.14817-0.11112-0.25929-0.33338-0.33338-0.21167-0.07408-0.65617-0.13229-1.3335-0.17462-0.46567-0.03175-0.86783-0.10054-1.2065-0.20638-0.33867-0.10583-0.57679-0.21167-0.71438-0.3175-0.127-0.11642-0.24871-0.21696-0.36512-0.30162-0.11642-0.08467-0.22225-0.127-0.3175-0.127s-0.20108 0.04763-0.3175 0.14288c-0.10583 0.08467-0.22225 0.18521-0.34925 0.30162-0.11642 0.10583-0.33338 0.21167-0.65088 0.3175-0.30692 0.10583-0.67733 0.16933-1.1112 0.1905-0.47625 0-0.85196 0.02646-1.1271 0.07938-0.26458 0.04233-0.43921 0.10054-0.52388 0.17462-0.084667 0.0635-0.127 0.14817-0.127 0.254 0.03175 0.21167 0.14288 0.3175 0.33338 0.3175 0.010583 0 0.14288-0.02117 0.39688-0.0635 0.26458-0.04233 0.41275-0.0635 0.4445-0.0635 0.68792 0 1.3229-0.08467 1.905-0.254 0.58208-0.17992 0.96838-0.45508 1.1589-0.8255z" fill="#fff" stroke-width=".512"/>
  </g>
 </g>
</svg>
