<svg width="64" height="64" version="1.1" viewBox="0 0 16.933 16.933" xmlns="http://www.w3.org/2000/svg">
 <g transform="matrix(1.25 0 0 1.25 -2.119 -2.1168)" stroke-width=".8">
  <g transform="translate(0 -.20108)" style="shape-inside:url(#rect833);white-space:pre" aria-label="♔">
   <path d="m11.31 6.5087c0.127 0 0.28575 0.03175 0.47625 0.09525 0.1905 0.052917 0.40217 0.14288 0.635 0.26988 0.24342 0.11642 0.4445 0.31221 0.60325 0.58738 0.16933 0.27517 0.254 0.59267 0.254 0.9525 0 0.28575-0.05292 0.53975-0.15875 0.762-0.09525 0.22225-0.21696 0.42333-0.36512 0.60325-0.14817 0.17992-0.30162 0.381-0.46038 0.60325-0.14817 0.22225-0.28575 0.54504-0.41275 0.96838-0.11642 0.41275-0.18521 0.90488-0.20638 1.4764-0.02117 0.70908-1.0901 1.0636-3.2067 1.0636-2.1061 0-3.175-0.35454-3.2068-1.0636-0.042333-0.74083-0.15346-1.3494-0.33338-1.8256-0.16933-0.47625-0.34925-0.79904-0.53975-0.96838-0.17992-0.16933-0.34925-0.38629-0.508-0.65088-0.14817-0.26458-0.22225-0.58738-0.22225-0.96838 0-0.37042 0.079375-0.69321 0.23812-0.96838 0.16933-0.27517 0.37042-0.47096 0.60325-0.58738 0.24342-0.127 0.46038-0.21696 0.65088-0.26988 0.20108-0.052917 0.37042-0.079375 0.508-0.079375 0.51858 0 1.0372 0.20638 1.5558 0.61912 0-0.49742 0.047625-0.84667 0.14288-1.0478 0.09525-0.21167 0.33867-0.4445 0.73025-0.6985v-0.381l-0.65088-0.381v-0.5715h0.58738l0.20638-0.60325h0.47625l0.20638 0.60325h0.58738v0.5715l-0.65088 0.381v0.381c0.39158 0.24342 0.635 0.48154 0.73025 0.71438 0.09525 0.22225 0.14288 0.56621 0.14288 1.0319 0.13758-0.13758 0.35454-0.27517 0.65087-0.41275 0.30692-0.13758 0.61912-0.20638 0.93662-0.20638z" stroke-width=".8"/>
  </g>
  <g transform="translate(0 -.20108)" style="shape-inside:url(#rect833);white-space:pre" aria-label="♔">
   <path d="m8.4683 8.5407c0.0635-0.11642 0.15346-0.26458 0.26988-0.4445s0.1905-0.30162 0.22225-0.36512c0.042333-0.074083 0.079375-0.17992 0.11112-0.3175 0.042333-0.14817 0.0635-0.3175 0.0635-0.508 0-0.62442-0.21696-0.93662-0.65088-0.93662-0.45508 0-0.68262 0.31221-0.68262 0.93662 0 0.1905 0.015875 0.35983 0.047625 0.508 0.042333 0.13758 0.079375 0.24342 0.11112 0.3175 0.042333 0.074083 0.12171 0.20108 0.23812 0.381 0.11642 0.16933 0.20638 0.31221 0.26988 0.42862zm2.8257-1.4605c-0.51858 0-1.053 0.26988-1.6034 0.80962-0.55033 0.52917-0.86254 1.2224-0.93662 2.0796 0 0.254 0.96837 0.381 2.9051 0.381 0.02117-0.02117 0.14288-0.16933 0.36512-0.4445 0.22225-0.27517 0.39158-0.52388 0.508-0.74612 0.11642-0.23283 0.17462-0.44979 0.17462-0.65088 0-0.42333-0.13758-0.76729-0.41275-1.0319-0.26458-0.26458-0.59796-0.39688-1.0001-0.39688zm0.07937 3.9053c-0.30692-0.02117-0.64029-0.04233-1.0001-0.0635-0.34925-0.03175-0.59796-0.05292-0.74612-0.0635-0.13758-0.01058-0.29104-0.02646-0.46038-0.04763s-0.30162-0.04233-0.39688-0.0635-0.19579-0.05292-0.30162-0.09525c-0.127 0.05292-0.28046 0.10054-0.46038 0.14288-0.17992 0.03175-0.34396 0.05292-0.49212 0.0635-0.13758 0.01059-0.41804 0.03175-0.84138 0.0635-0.42333 0.02117-0.79375 0.04233-1.1112 0.0635 0.10583 0.40217 0.17462 0.84667 0.20638 1.3335 0.73025-0.23283 1.6298-0.34925 2.6988-0.34925 1.0901 0 1.9897 0.11642 2.6987 0.34925 0.03175-0.52917 0.10054-0.97367 0.20638-1.3335zm-5.7309-3.9053c-0.381 0-0.71438 0.13229-1.0001 0.39688-0.27517 0.26458-0.41275 0.60854-0.41275 1.0319 0 0.14817 0.042333 0.31221 0.127 0.49212s0.16933 0.33338 0.254 0.46038c0.084667 0.127 0.20638 0.29104 0.36512 0.49212 0.15875 0.20108 0.25929 0.33338 0.30162 0.39688 1.9368 0 2.9051-0.127 2.9051-0.381-0.074078-0.85725-0.38628-1.5505-0.93662-2.0796-0.53975-0.53975-1.0742-0.80962-1.6034-0.80962zm2.8416 5.5245c-1.4817 0-2.2225 0.13758-2.2225 0.41275 0 0.09525 0.254 0.16933 0.762 0.22225 0.508 0.05291 0.98954 0.07937 1.4446 0.07937 1.4711 0 2.2066-0.10054 2.2066-0.30162 0-0.27517-0.73025-0.41275-2.1907-0.41275z" fill="#fff" stroke-width=".64"/>
  </g>
 </g>
</svg>
