<svg width="64" height="64" version="1.1" viewBox="0 0 16.933 16.933" xmlns="http://www.w3.org/2000/svg">
 <g transform="matrix(1.25 0 0 1.25 -2.1091 -2.1168)">
  <g transform="translate(4.0312e-6 -.20108)" stroke-width=".8" style="shape-inside:url(#rect875);white-space:pre" aria-label="♘">
   <path d="m9.2462 5.7626c0.22225 0 0.48154 0.058208 0.77787 0.17462 0.29633 0.11642 0.635 0.33867 1.016 0.66675 0.381 0.3175 0.72496 0.71967 1.0319 1.2065 0.3175 0.47625 0.58208 1.1324 0.79375 1.9685 0.22225 0.8255 0.33338 1.7515 0.33338 2.7781 0 0.49742-0.02117 0.94192-0.0635 1.3335h-6.6516c0.03175-0.48683 0.13229-0.92075 0.30162-1.3018 0.17992-0.381 0.37042-0.67204 0.5715-0.87312s0.39158-0.44979 0.5715-0.74612c0.1905-0.30692 0.30692-0.635 0.34925-0.98425-0.41275 0.17992-0.76729 0.40217-1.0636 0.66675-0.28575 0.254-0.48683 0.48683-0.60325 0.6985s-0.23283 0.39688-0.34925 0.55562c-0.10583 0.14817-0.21167 0.22225-0.3175 0.22225-0.17992 0-0.33867-0.04233-0.47625-0.127s-0.21167-0.1905-0.22225-0.3175c-0.10583 0.05292-0.21167 0.07938-0.3175 0.07938-0.508 0-0.91017-0.3175-1.2065-0.9525 0.0635-0.40217 0.41275-1.27 1.0478-2.6035 0.635-1.3441 0.9525-2.2119 0.9525-2.6035 0-0.052917-0.03175-0.34925-0.09525-0.889 0.65617 0 1.2435 0.17992 1.7621 0.53975 0.28575-0.49742 0.52388-0.74612 0.71438-0.74612 0.254 0.13758 0.43392 0.29104 0.53975 0.46038 0.11642 0.16933 0.22754 0.4445 0.33338 0.8255 0.10583-0.021167 0.19579-0.03175 0.26988-0.03175z" stroke-width=".8"/>
  </g>
  <g transform="translate(4.0312e-6 -.20108)" fill="#fff" stroke-width=".64" style="shape-inside:url(#rect875);white-space:pre" aria-label="♘">
   <path d="m4.8647 10.144c0.14817 0 0.22225 0.10054 0.22225 0.30162 0 0.26458-0.13229 0.39688-0.39688 0.39688-0.10583 0-0.15875-0.08467-0.15875-0.254 0-0.29633 0.11112-0.4445 0.33338-0.4445zm1.143-1.9368c-0.14817 0-0.22225-0.089958-0.22225-0.26988 0-0.20108 0.10054-0.38629 0.30162-0.55562s0.40746-0.254 0.61912-0.254c0.24342 0 0.36512 0.074083 0.36512 0.22225 0 0.1905-0.127 0.381-0.381 0.5715s-0.48154 0.28575-0.68262 0.28575zm0.127-2.9845c0.042333 0.14817 0.0635 0.24871 0.0635 0.30162 0 0.03175-0.015875 0.11642-0.047625 0.254 0.0635 0 0.17462-0.026458 0.33338-0.079375 0.16933-0.0635 0.29104-0.12171 0.36512-0.17462-0.28575-0.14817-0.52388-0.24871-0.71438-0.30162zm2.7781 4.3498c0 0.46567-0.127 0.94192-0.381 1.4288-0.254 0.47625-0.52388 0.92075-0.80962 1.3335-0.27517 0.41275-0.42862 0.73554-0.46038 0.96838h5.2387c0.04233-0.48683 0.0635-0.84667 0.0635-1.0795 0-0.92075-0.13229-1.7727-0.39688-2.5559-0.254-0.78317-0.56092-1.397-0.92075-1.8415-0.34925-0.4445-0.68262-0.78846-1.0001-1.0319-0.30692-0.24342-0.55033-0.36512-0.73025-0.36512h-0.9525c-0.084667-0.042333-0.16404-0.23283-0.23812-0.5715-0.0635-0.33867-0.14817-0.55033-0.254-0.635-0.084667 0.27517-0.23283 0.47096-0.4445 0.58738-0.20108 0.11642-0.45508 0.21696-0.762 0.30162-0.29633 0.084667-0.52917 0.1905-0.6985 0.3175-0.127 0.43392-0.47096 1.18-1.0319 2.2384-0.55033 1.0583-0.84667 1.7304-0.889 2.0161 0.042333 0.15875 0.14288 0.30162 0.30162 0.42862s0.32808 0.1905 0.508 0.1905c0.074083 0 0.16933-0.04233 0.28575-0.127s0.22225-0.127 0.3175-0.127c0.052917 0 0.079375 0.03175 0.079375 0.09525l-0.047625 0.14288c-0.03175 0.09525-0.047625 0.14817-0.047625 0.15875 0 0.09525 0.074083 0.14288 0.22225 0.14288 0.021167 0 0.15346-0.18521 0.39688-0.55562 0.46567-0.71967 1.1271-1.2647 1.9844-1.6351 0.0635-0.42333 0.19579-0.80962 0.39688-1.1589 0.21167-0.34925 0.37571-0.52388 0.49212-0.52388 0.09525 0 0.14288 0.068792 0.14288 0.20638 0 0.074083-0.068792 0.30162-0.20638 0.68262-0.127 0.37042-0.1905 0.62442-0.1905 0.762 0 0.03175 0.010583 0.10054 0.03175 0.20638z" fill="#fff" stroke-width=".512"/>
  </g>
 </g>
</svg>
