<svg width="64" height="64" version="1.1" viewBox="0 0 16.933 16.933" xmlns="http://www.w3.org/2000/svg">
 <g transform="matrix(1.25 0 0 1.25 -2.109 -2.1173)">
  <g transform="translate(1.6031e-5 -.20108)" stroke-width=".8" style="shape-inside:url(#rect877);white-space:pre" aria-label="♙">
   <path d="m5.071 13.891c-0.010583-0.127-0.015875-0.37042-0.015875-0.73025 0-0.92075 0.16933-1.6457 0.508-2.1749 0.33867-0.53975 0.87312-0.99483 1.6034-1.3653-0.254-0.084667-0.46567-0.25929-0.635-0.52388s-0.254-0.56092-0.254-0.889c0-0.70908 0.35983-1.2171 1.0795-1.524-0.16933-0.30692-0.254-0.60854-0.254-0.90488 0-0.35983 0.13229-0.65088 0.39688-0.87312 0.27517-0.23283 0.59796-0.34925 0.96838-0.34925s0.68792 0.11642 0.9525 0.34925c0.27517 0.23283 0.41275 0.52388 0.41275 0.87312 0 0.28575-0.09525 0.58738-0.28575 0.90488 0.73025 0.29633 1.0954 0.80433 1.0954 1.524 0 0.33867-0.08996 0.64029-0.26988 0.90488-0.16933 0.254-0.381 0.42333-0.635 0.508 0.73025 0.381 1.2647 0.83608 1.6034 1.3653 0.34925 0.52917 0.52388 1.2541 0.52388 2.1749 0 0.34925-0.0053 0.59267-0.01587 0.73025z" stroke-width=".8"/>
  </g>
  <g transform="translate(1.6031e-5 -.20108)" fill="#fff" stroke-width=".64" style="shape-inside:url(#rect877);white-space:pre" aria-label="♙">
   <path d="m7.8809 9.5567c0 0.127-0.079375 0.24871-0.23812 0.36512-0.14817 0.11642-0.33338 0.24871-0.55562 0.39688-0.22225 0.13758-0.4445 0.31221-0.66675 0.52388s-0.41275 0.52388-0.5715 0.93662c-0.14817 0.41275-0.22225 0.90488-0.22225 1.4764h5.6674c0-0.47625-0.05821-0.89958-0.17462-1.27-0.10583-0.381-0.24342-0.67204-0.41275-0.87312-0.16933-0.21167-0.35454-0.39688-0.55562-0.55562-0.1905-0.16933-0.37042-0.29633-0.53975-0.381s-0.31221-0.17992-0.42862-0.28575c-0.10583-0.10583-0.15875-0.21696-0.15875-0.33338 0-0.10583 0.047625-0.1905 0.14288-0.254 0.09525-0.074083 0.20108-0.13229 0.3175-0.17462 0.127-0.052917 0.23812-0.15346 0.33338-0.30162 0.09525-0.15875 0.14288-0.35983 0.14288-0.60325s-0.058208-0.45508-0.17462-0.635c-0.11642-0.17992-0.24342-0.30692-0.381-0.381-0.13758-0.084667-0.26458-0.16933-0.381-0.254-0.11642-0.09525-0.17462-0.17992-0.17462-0.254 0-0.15875 0.052917-0.32279 0.15875-0.49212 0.10583-0.17992 0.15875-0.32279 0.15875-0.42862 0-0.1905-0.074083-0.34925-0.22225-0.47625-0.14817-0.13758-0.3175-0.20638-0.508-0.20638-0.17992 0-0.34396 0.068792-0.49212 0.20638-0.13758 0.127-0.20638 0.27517-0.20638 0.4445 0 0.10583 0.052917 0.254 0.15875 0.4445 0.10583 0.17992 0.15875 0.34925 0.15875 0.508 0 0.074083-0.058208 0.15875-0.17462 0.254-0.11642 0.084667-0.24342 0.16933-0.381 0.254-0.127 0.084667-0.24871 0.21696-0.36512 0.39688s-0.17462 0.38629-0.17462 0.61912c0 0.24342 0.074083 0.45508 0.22225 0.635 0.15875 0.17992 0.31221 0.32279 0.46038 0.42862 0.15875 0.10583 0.23812 0.19579 0.23812 0.26988z" fill="#fff" stroke-width=".512"/>
  </g>
 </g>
</svg>
