<svg width="64" height="64" version="1.1" viewBox="0 0 16.933 16.933" xmlns="http://www.w3.org/2000/svg">
 <g transform="matrix(1.25 0 0 1.25 -2.109 -2.1169)">
  <g transform="translate(1.0312e-6 -.20108)" stroke-width=".8" style="shape-inside:url(#rect845);white-space:pre" aria-label="♕">
   <path d="m7.9127 6.0484c0-0.35983-0.058208-0.69321-0.17462-1.0001-0.10583-0.30692-0.15875-0.48154-0.15875-0.52388 0-0.24342 0.084667-0.44979 0.254-0.61912 0.17992-0.17992 0.39158-0.26988 0.635-0.26988s0.44979 0.089958 0.61912 0.26988c0.16933 0.16933 0.254 0.37571 0.254 0.61912 0 0.042333-0.058208 0.21696-0.17462 0.52388-0.11642 0.29633-0.17462 0.62971-0.17462 1.0001 0 0.51858 0.11642 1.2859 0.34925 2.3019 0.5715-1.2065 0.85725-2.1167 0.85725-2.7305 0-0.0635-0.01588-0.17992-0.04763-0.34925-0.03175-0.17992-0.04763-0.29104-0.04763-0.33338 0-0.24342 0.08467-0.44979 0.254-0.61912 0.16933-0.17992 0.37571-0.26988 0.61912-0.26988 0.254 0 0.46567 0.089958 0.635 0.26988 0.17992 0.16933 0.26988 0.37571 0.26988 0.61912 0 0.1905-0.03704 0.34396-0.11112 0.46038-0.07408 0.10583-0.15875 0.1905-0.254 0.254-0.09525 0.052917-0.17992 0.1905-0.254 0.41275s-0.11112 0.52917-0.11112 0.92075c0 0.27517 0.02646 0.71967 0.07937 1.3335 0.68792-0.70908 1.0319-1.2859 1.0319-1.7304l-0.03175-0.28575c-0.03175-0.1905-0.04763-0.30162-0.04763-0.33338 0-0.23283 0.08467-0.43921 0.254-0.61912 0.17992-0.17992 0.38629-0.26988 0.61912-0.26988 0.24342 0 0.45508 0.089958 0.635 0.26988 0.17992 0.16933 0.26988 0.37571 0.26988 0.61912 0 0.43392-0.24342 0.762-0.73025 0.98425-0.02117 0.42333-0.21167 1.3758-0.5715 2.8575 0 0.09525-0.20108 0.38629-0.60325 0.87313-0.39158 0.48683-0.58738 0.80433-0.58738 0.9525 0 0.09525 0.07408 0.29633 0.22225 0.60325s0.22225 0.56092 0.22225 0.762v0.254c0 0.24342-0.38629 0.41275-1.1589 0.508-0.762 0.08467-1.5293 0.127-2.3019 0.127-0.85725 0-1.6457-0.04763-2.3654-0.14288-0.71967-0.10583-1.0795-0.26988-1.0795-0.49212v-0.254c0-0.22225 0.068792-0.48683 0.20638-0.79375 0.14817-0.30692 0.22225-0.49742 0.22225-0.5715 0-0.22225-0.17462-0.52388-0.52388-0.90488-0.33867-0.381-0.55562-0.68792-0.65088-0.92075-0.35983-1.4605-0.55033-2.413-0.5715-2.8575-0.48683-0.22225-0.73025-0.55033-0.73025-0.98425 0-0.24342 0.089958-0.44979 0.26988-0.61912 0.17992-0.17992 0.38629-0.26988 0.61912-0.26988 0.24342 0 0.44979 0.089958 0.61912 0.26988 0.17992 0.16933 0.26988 0.37571 0.26988 0.61912 0 0.010583-0.015875 0.11112-0.047625 0.30162-0.021167 0.1905-0.03175 0.29633-0.03175 0.3175 0 0.46567 0.33867 1.0425 1.016 1.7304 0.052917-0.46567 0.079375-0.91017 0.079375-1.3335 0-0.381-0.037042-0.68262-0.11112-0.90488-0.074083-0.23283-0.15875-0.37571-0.254-0.42862-0.09525-0.0635-0.17992-0.15346-0.254-0.26988-0.074083-0.11642-0.11112-0.26458-0.11112-0.4445 0-0.24342 0.089958-0.44979 0.26988-0.61912 0.17992-0.17992 0.39158-0.26988 0.635-0.26988s0.44979 0.089958 0.61912 0.26988c0.17992 0.16933 0.26988 0.37571 0.26988 0.61912l-0.047625 0.30162c-0.03175 0.20108-0.047625 0.32808-0.047625 0.381 0 0.60325 0.28575 1.5134 0.85725 2.7305 0.22225-0.96308 0.33338-1.7304 0.33338-2.3019z" stroke-width=".8"/>
  </g>
  <g transform="translate(1.0312e-6 -.20108)" fill="#fff" stroke-width=".64" style="shape-inside:url(#rect845);white-space:pre" aria-label="♕">
   <path d="m8.4524 10.319c0.58208 0 1.1218 0.02117 1.6192 0.0635 0.508 0.03175 0.80433 0.04762 0.889 0.04762 0.127 0 0.20638-0.0053 0.23812-0.01587 0.03175-0.02117 0.04762-0.0635 0.04762-0.127 0-0.21167-0.32808-0.37042-0.98425-0.47625-0.64558-0.11642-1.2435-0.17462-1.7939-0.17462-0.56092 0-1.1642 0.058208-1.8098 0.17462-0.64558 0.10583-0.96838 0.26458-0.96838 0.47625 0 0.05291 0.015875 0.08995 0.047625 0.11112s0.11112 0.03175 0.23812 0.03175c0.010583 0 0.32808-0.01587 0.9525-0.04762 0.62442-0.04233 1.1324-0.0635 1.524-0.0635zm2.5876 0.71438c-0.83608-0.10583-1.6933-0.15875-2.5717-0.15875-0.92075 0-1.778 0.05292-2.5718 0.15875 0.127 0.10583 0.1905 0.31221 0.1905 0.61912 0 0.20108-0.03175 0.32279-0.09525 0.36512 0.64558-0.11642 1.4711-0.17462 2.4765-0.17462s1.8309 0.05821 2.4765 0.17462c-0.0635-0.04233-0.09525-0.16404-0.09525-0.36512 0-0.30692 0.0635-0.51329 0.1905-0.61912zm0.01588 1.8098c0-0.29633-0.86254-0.4445-2.5876-0.4445-1.7251 0-2.5876 0.14817-2.5876 0.4445 0 0.26458 0.86254 0.39688 2.5876 0.39688 1.7251 0 2.5876-0.13229 2.5876-0.39688zm-2.5876-8.7471c-0.26458 0-0.39688 0.127-0.39688 0.381 0 0.27517 0.13229 0.41275 0.39688 0.41275 0.254 0 0.381-0.13758 0.381-0.41275 0-0.254-0.127-0.381-0.381-0.381zm4.5879 1.4922c-0.09525 0-0.18521 0.037042-0.26988 0.11112-0.07408 0.074083-0.11112 0.16404-0.11112 0.26988 0 0.11642 0.03704 0.21696 0.11112 0.30162 0.07408 0.074083 0.16404 0.11112 0.26988 0.11112 0.26458 0 0.39688-0.13758 0.39688-0.41275 0-0.254-0.13229-0.381-0.39688-0.381zm-2.0796-1.016c-0.10583 0-0.19579 0.042333-0.26988 0.127-0.07408 0.074083-0.11112 0.16404-0.11112 0.26988s0.03704 0.20108 0.11112 0.28575c0.07408 0.074083 0.16404 0.11112 0.26988 0.11112 0.27517 0 0.41275-0.13229 0.41275-0.39688s-0.13758-0.39688-0.41275-0.39688zm-5.0482 0c-0.26458 0-0.39688 0.13229-0.39688 0.39688s0.13229 0.39688 0.39688 0.39688c0.254 0 0.381-0.13229 0.381-0.39688s-0.127-0.39688-0.381-0.39688zm-2.0796 1.016c-0.26458 0-0.39688 0.127-0.39688 0.381 0 0.27517 0.13229 0.41275 0.39688 0.41275 0.254 0 0.381-0.13758 0.381-0.41275 0-0.10583-0.042333-0.19579-0.127-0.26988-0.074083-0.074083-0.15875-0.11112-0.254-0.11112zm4.6196 1.016c-0.09525 0.58208-0.20108 1.0425-0.3175 1.3811-0.11642 0.32808-0.22225 0.56092-0.3175 0.6985s-0.15346 0.24871-0.17462 0.33338c-0.052917-0.0635-0.14288-0.16933-0.26988-0.3175s-0.20638-0.24871-0.23812-0.30162c-0.03175-0.052917-0.09525-0.14288-0.1905-0.26988-0.084667-0.13758-0.15346-0.26988-0.20638-0.39688-0.052917-0.127-0.12171-0.29633-0.20638-0.508-0.084667-0.21167-0.17462-0.45508-0.26988-0.73025 0.021167 0.14817 0.03175 0.30162 0.03175 0.46038 0 0.49742-0.089958 1.2647-0.26988 2.3019-0.5715-0.33867-1.1271-0.87842-1.6669-1.6192 0.254 1.2594 0.44979 1.9632 0.58738 2.1114 0.021167 0.021167 0.042333 0.037042 0.0635 0.047625 0.86783-0.49742 2.0161-0.74612 3.4449-0.74612 1.4393 0 2.5876 0.24871 3.4449 0.74612 0.1905-0.0635 0.40217-0.78317 0.635-2.159-0.55033 0.762-1.1007 1.3018-1.651 1.6192-0.17992-0.92075-0.26988-1.6457-0.26988-2.1749 0-0.13758 0.01058-0.33338 0.03175-0.58738-0.15875 0.48683-0.32279 0.89958-0.49212 1.2382-0.15875 0.32808-0.29104 0.55033-0.39687 0.66675-0.09525 0.11642-0.1905 0.22754-0.28575 0.33338s-0.16404 0.20108-0.20638 0.28575c-0.052917-0.09525-0.11642-0.20108-0.1905-0.3175-0.074083-0.127-0.12171-0.21696-0.14288-0.26988-0.021167-0.052917-0.058208-0.15346-0.11112-0.30162-0.052917-0.15875-0.10583-0.34925-0.15875-0.5715-0.052917-0.23283-0.12171-0.55033-0.20638-0.9525z" fill="#fff" stroke-width=".512"/>
  </g>
 </g>
</svg>
