<svg width="64" height="64" version="1.1" viewBox="0 0 16.933 16.933" xmlns="http://www.w3.org/2000/svg">
 <g transform="matrix(1.25 0 0 1.25 -2.1189 -2.1173)">
  <g transform="translate(2.0312e-6 -.20108)" stroke-width=".8" style="shape-inside:url(#rect859);white-space:pre" aria-label="♖">
   <path d="m4.7853 13.891-0.30162-0.30162v-1.0954l1.6192-1.6351v-3.175l-1.397-1.2224v-1.4446l0.46038-0.4445h1.4288l0.26988 0.26988v0.41275h0.46038v-0.41275l0.26988-0.26988h1.7462l0.26988 0.26988v0.41275h0.4445v-0.41275l0.28575-0.26988h1.4288l0.46038 0.4445v1.4446l-1.397 1.2224v3.175l1.6192 1.6351v1.0954l-0.30162 0.30162z" stroke-width=".8"/>
  </g>
  <g transform="translate(2.0312e-6 -.20108)" fill="#fff" stroke-width=".64" style="shape-inside:url(#rect859);white-space:pre" aria-label="♖">
   <path d="m6.6585 7.7311v2.8099h3.6195v-2.8099zm-1.6192 4.9054v0.61912h6.858v-0.61912zm1.5558-1.5716-1.0478 1.016h5.842l-1.0478-1.016zm1.27-5.8261v0.41275l-0.23812 0.22225h-1.0319l-0.23812-0.22225v-0.4445h-0.889l-0.20638 0.22225v0.889l1.0795 0.87312h4.2545l1.0795-0.87312v-0.889l-0.20638-0.22225h-0.889v0.4445l-0.23812 0.22225h-1.0319l-0.23812-0.22225v-0.41275z" fill="#fff" stroke-width=".512"/>
  </g>
 </g>
</svg>
